<svg width="18" height="18" viewBox="0 0 18 18" fill="none" xmlns="http://www.w3.org/2000/svg">
<path d="M12.1195 2.18388C13.0628 2.18659 13.9668 2.54866 14.6338 3.19102C15.3009 3.83338 15.6769 4.70383 15.6797 5.61226V12.4683C15.6769 13.3767 15.3009 14.2472 14.6338 14.8895C13.9668 15.5319 13.0628 15.8939 12.1195 15.8967H4.99976C4.05639 15.8939 3.15247 15.5319 2.4854 14.8895C1.81834 14.2472 1.44234 13.3767 1.43952 12.4683V5.61226C1.44234 4.70383 1.81834 3.83338 2.4854 3.19102C3.15247 2.54866 4.05639 2.18659 4.99976 2.18388H12.1195ZM12.1195 0.812744H4.99976C2.25845 0.812744 0.0156555 2.97247 0.0156555 5.61226V12.4683C0.0156555 15.1081 2.25845 17.2678 4.99976 17.2678H12.1195C14.8608 17.2678 17.1036 15.1081 17.1036 12.4683V5.61226C17.1036 2.97247 14.8608 0.812744 12.1195 0.812744Z" fill="black"/>
<path d="M13.1875 5.6123C12.9762 5.6123 12.7698 5.55198 12.5941 5.43898C12.4185 5.32597 12.2816 5.16535 12.2008 4.97743C12.1199 4.7895 12.0988 4.58272 12.14 4.38322C12.1812 4.18372 12.2829 4.00047 12.4323 3.85664C12.5816 3.71281 12.7719 3.61486 12.9791 3.57518C13.1863 3.5355 13.401 3.55587 13.5962 3.63371C13.7913 3.71155 13.9581 3.84336 14.0755 4.01249C14.1928 4.18162 14.2555 4.38045 14.2555 4.58386C14.2558 4.719 14.2283 4.85286 14.1748 4.97777C14.1212 5.10268 14.0426 5.21617 13.9433 5.31173C13.8441 5.40728 13.7262 5.48303 13.5965 5.53461C13.4668 5.58619 13.3278 5.61259 13.1875 5.6123ZM8.55961 6.29768C9.12292 6.29768 9.67357 6.45854 10.1419 6.7599C10.6103 7.06126 10.9754 7.4896 11.1909 7.99075C11.4065 8.4919 11.4629 9.04336 11.353 9.57537C11.2431 10.1074 10.9718 10.5961 10.5735 10.9796C10.1752 11.3632 9.66773 11.6244 9.11525 11.7302C8.56277 11.8361 7.99011 11.7818 7.46969 11.5742C6.94926 11.3666 6.50445 11.0151 6.19149 10.564C5.87854 10.113 5.7115 9.58275 5.7115 9.04031C5.7123 8.31316 6.01263 7.61601 6.54658 7.10184C7.08053 6.58767 7.80449 6.29846 8.55961 6.29768ZM8.55961 4.92655C7.71469 4.92655 6.88875 5.16782 6.18623 5.61985C5.4837 6.07187 4.93615 6.71435 4.61282 7.46605C4.28948 8.21774 4.20488 9.04488 4.36972 9.84287C4.53455 10.6409 4.94142 11.3739 5.53886 11.9492C6.13631 12.5245 6.89751 12.9163 7.72619 13.075C8.55487 13.2338 9.41383 13.1523 10.1944 12.8409C10.975 12.5296 11.6422 12.0023 12.1116 11.3258C12.581 10.6493 12.8316 9.85394 12.8316 9.04031C12.8316 7.94928 12.3815 6.90293 11.5804 6.13144C10.7792 5.35996 9.69261 4.92655 8.55961 4.92655Z" fill="black"/>
</svg>
