<svg width="18" height="24" viewBox="0 0 18 24" fill="none" xmlns="http://www.w3.org/2000/svg">
<path d="M9.26493 1C4.97804 1 1.5 4.25865 1.5 8.27211C1.5 12.8902 6.67662 20.2085 8.57741 22.7362C8.65631 22.8429 8.75972 22.9297 8.87921 22.9896C8.99869 23.0494 9.13086 23.0806 9.26493 23.0806C9.399 23.0806 9.53117 23.0494 9.65066 22.9896C9.77014 22.9297 9.87355 22.8429 9.95245 22.7362C11.8532 20.2095 17.0299 12.8939 17.0299 8.27211C17.0299 4.25865 13.5518 1 9.26493 1Z" stroke="#18AA1C" stroke-width="1.5" stroke-linecap="round" stroke-linejoin="round"/>
<path d="M9.26503 12.6475C10.9804 12.6475 12.371 11.2569 12.371 9.54152C12.371 7.82614 10.9804 6.43555 9.26503 6.43555C7.54965 6.43555 6.15906 7.82614 6.15906 9.54152C6.15906 11.2569 7.54965 12.6475 9.26503 12.6475Z" stroke="#18AA1C" stroke-width="1.5" stroke-linecap="round" stroke-linejoin="round"/>
</svg>
