<svg width="19" height="16" viewBox="0 0 19 16" fill="none" xmlns="http://www.w3.org/2000/svg">
<path d="M18.5 2.4523C17.8132 2.75071 17.0866 2.94731 16.3431 3.03588C17.1245 2.57831 17.7121 1.85138 17.9958 0.991431C17.257 1.42343 16.4501 1.72654 15.6096 1.88778C15.2556 1.51686 14.83 1.22178 14.3585 1.02047C13.8869 0.819173 13.3794 0.715856 12.8667 0.716803C10.791 0.716803 9.1112 2.3722 9.1112 4.41283C9.10973 4.69667 9.14225 4.97967 9.20808 5.25578C7.71963 5.18601 6.26214 4.8063 4.92884 4.14097C3.59555 3.47564 2.41581 2.53932 1.46511 1.39193C1.13158 1.9542 0.955196 2.59573 0.954382 3.24948C0.954382 4.53107 1.62302 5.66391 2.63266 6.32759C2.03448 6.3134 1.44856 6.15508 0.924631 5.86607V5.91184C0.924631 7.70455 2.22148 9.19592 3.9379 9.53539C3.61513 9.62144 3.28252 9.66503 2.94848 9.66508C2.71146 9.66549 2.47497 9.6425 2.24246 9.59642C2.71963 11.0649 4.1084 12.1329 5.7535 12.1634C4.41674 13.1936 2.77555 13.7504 1.08788 13.7463C0.788316 13.7459 0.489028 13.7281 0.191528 13.6929C1.9084 14.7893 3.90413 15.3691 5.94116 15.3636C12.8587 15.3636 16.6379 9.72992 16.6379 4.84384C16.6379 4.68364 16.6337 4.52344 16.6261 4.36706C17.3596 3.84529 17.9942 3.19688 18.5 2.4523Z" fill="black"/>
</svg>
